<svg version="1.1" xmlns="http://www.w3.org/2000/svg" xmlns:xlink="http://www.w3.org/1999/xlink" x="0px" y="0px" width="29px" height="26.218px" viewBox="0 0 29 26.218" enable-background="new 0 0 29 26.218" xml:space="preserve">

                <path fill="none" stroke="#fff" stroke-linecap="round" stroke-linejoin="round" stroke-miterlimit="10" d="M14.5,4.913 c0-2.437,5.991-4.413,14-4.413v20.805c-8.009,0-14,1.976-14,4.413c0-2.438-5.993-4.413-14-4.413V0.5 C8.507,0.5,14.5,2.476,14.5,4.913z"></path>

                <line fill="none" stroke="#fff" stroke-linecap="round" stroke-linejoin="round" stroke-miterlimit="10" x1="14.5" y1="4.913" x2="14.5" y2="25.718"></line>

                <path fill="none" stroke="#fff" stroke-linecap="round" stroke-linejoin="round" stroke-miterlimit="10" d="M11.348,7.737 c-2.03-0.776-4.9-1.341-8.195-1.563"></path>

                <path fill="none" stroke="#fff" stroke-linecap="round" stroke-linejoin="round" stroke-miterlimit="10" d="M11.348,11.52 c-2.03-0.776-4.9-1.341-8.195-1.563"></path>

                <path fill="none" stroke="#fff" stroke-linecap="round" stroke-linejoin="round" stroke-miterlimit="10" d="M11.348,15.303 c-2.03-0.776-4.9-1.341-8.195-1.563"></path>

                <path fill="none" stroke="#fff" stroke-linecap="round" stroke-linejoin="round" stroke-miterlimit="10" d="M11.348,19.085 c-2.03-0.776-4.9-1.34-8.195-1.563"></path>

                <path fill="none" stroke="#fff" stroke-linecap="round" stroke-linejoin="round" stroke-miterlimit="10" d="M17.652,15.303 c2.031-0.776,4.9-1.341,8.195-1.563"></path>

                <path fill="none" stroke="#fff" stroke-linecap="round" stroke-linejoin="round" stroke-miterlimit="10" d="M17.652,19.085 c2.031-0.776,4.9-1.34,8.195-1.563"></path>

                <polyline fill="none" stroke="#fff" stroke-miterlimit="10" points="25.5,0.596 25.5,11 23,8.5 20.5,11 20.5,1.252  "></polyline>
              </svg>
