<svg id="Layer_1" data-name="Layer 1" xmlns="http://www.w3.org/2000/svg" viewBox="0 0 591 86.67"><defs><style>.cls-1{fill:none;stroke:#fff;stroke-miterlimit:10;stroke-width:7px;}</style></defs><title>Kurosio</title><line class="cls-1" x1="4" y1="3.5" x2="3.5" y2="83.8"/><line class="cls-1" x1="18.65" y1="33.04" x2="46.35" y2="3.5"/><path class="cls-1" d="M25.27,57.48C37.28,71.37,49.19,84.79,61,99" transform="translate(-10 -14.7)"/><line class="cls-1" x1="82.76" y1="3.3" x2="82.76" y2="46.51"/><line class="cls-1" x1="134.28" y1="3.3" x2="134.28" y2="46.51"/><line class="cls-1" x1="44.29" y1="3.5" x2="44.29" y2="3.5"/><line class="cls-1" x1="41.78" y1="6.19" x2="41.77" y2="6.19"/><path class="cls-1" d="M92.76,61.2C92.76,79.89,104.69,95,119.44,95" transform="translate(-10 -14.7)"/><path class="cls-1" d="M144.28,61.2c0,18.69-11.11,33.81-24.84,33.81" transform="translate(-10 -14.7)"/><line class="cls-1" x1="181.09" y1="3.5" x2="181.5" y2="84.8"/><path class="cls-1" d="M202.81,57.54,241,99" transform="translate(-10 -14.7)"/><path class="cls-1" d="M205.59,21.33c8.84,0,18.73,3.82,23.28,12.43,4.78,9.05.6,19-7.36,24A30.48,30.48,0,0,1,205,62" transform="translate(-10 -14.7)"/><ellipse class="cls-1" cx="298.18" cy="43.1" rx="33.99" ry="38.7"/><path class="cls-1" d="M407.49,55.66c-13.84-.13-25-8-24.89-17.64S394,20.73,407.82,20.86s25,8,24.89,17.64" transform="translate(-10 -14.7)"/><path class="cls-1" d="M407.05,55.65C422.5,55.81,438,66.46,434.19,80c-3.73,13.35-23.25,18.93-37.9,14.5-8-2.42-14.8-7.79-16.76-14.73" transform="translate(-10 -14.7)"/><line class="cls-1" x1="471.62" y1="4.73" x2="471.5" y2="83.8"/><ellipse class="cls-1" cx="553.64" cy="43.8" rx="33.86" ry="38"/></svg>