<svg version="1.1" xmlns="http://www.w3.org/2000/svg" xmlns:xlink="http://www.w3.org/1999/xlink" x="0px" y="0px" width="26px" height="30px" viewBox="0 0 26 30" enable-background="new 0 0 26 30" xml:space="preserve">

                <path fill="none" stroke="#fff" stroke-linecap="round" stroke-linejoin="round" stroke-miterlimit="10" d="M14.5,26.5h4 c4,0,7-3.5,7-7.5V3.5"></path>

                <line fill="none" stroke="#fff" stroke-linecap="round" stroke-linejoin="round" stroke-miterlimit="10" x1="22.5" y1="15" x2="22.5" y2="18"></line>

                <line fill="none" stroke="#fff" stroke-linecap="round" stroke-linejoin="round" stroke-miterlimit="10" x1="25.5" y1="0.5" x2="25.5" y2="1.5"></line>

                <path fill="none" stroke="#fff" stroke-linecap="round" stroke-linejoin="round" stroke-miterlimit="10" d="M21.5,17.5 c0,2-1,3-3,3h-2c-2.5,0-5-2.5-5-5v-5H16c3.5,0,5.5,2,5.5,5V17.5z"></path>

                <line fill="none" stroke="#fff" stroke-linecap="round" stroke-linejoin="round" stroke-miterlimit="10" x1="0.5" y1="15" x2="0.5" y2="18"></line>

                <path fill="none" stroke="#fff" stroke-linecap="round" stroke-linejoin="round" stroke-miterlimit="10" d="M1.5,17.5 c0,2,1,3,3,3h2c2.5,0,5-2.5,5-5v-5H7c-3.5,0-5.5,2-5.5,5V17.5z"></path>

                <line fill="none" stroke="#fff" stroke-linecap="round" stroke-miterlimit="10" x1="8.5" y1="26.5" x2="5.5" y2="26.5"></line>

                <circle fill="none" stroke="#fff" stroke-linecap="round" stroke-miterlimit="10" cx="11.5" cy="26.5" r="3"></circle>
              </svg>
